<svg id="cocktail" xmlns="http://www.w3.org/2000/svg" viewBox="0 0 40.662 48.95">
  <defs>
    <style>
      .cls-1 {
        fill: #272726;
      }
    </style>
  </defs>
  <g id="Group_13" data-name="Group 13" transform="translate(0)">
    <path id="Path_13" data-name="Path 13" class="cls-1" d="M85.74,4.9a6.8,6.8,0,0,0-6.862,5.711H76.705l2.763-8.974h2.811V0H78.819a.86.86,0,0,0-.831.588L74.9,10.606H52.864a.842.842,0,0,0-.865.816.787.787,0,0,0,.187.507L68.437,31.286V47.318H61.516V48.95H77.089V47.318H70.167V31.286l12-14.3a7.077,7.077,0,0,0,3.571.958,6.733,6.733,0,0,0,6.921-6.527A6.733,6.733,0,0,0,85.74,4.9ZM54.653,12.238H74.4l-1.758,5.711h-13.2ZM69.3,29.687,60.817,19.58H72.142l-1.94,6.3,1.661.455,2.08-6.754h3.845Zm9.855-11.739H74.445L76.2,12.238h7.748Zm6.583-1.632a5.329,5.329,0,0,1-2.5-.6l3.177-3.784a.785.785,0,0,0-.141-1.146.9.9,0,0,0-.537-.176H80.621A5.168,5.168,0,0,1,86.6,6.6a4.933,4.933,0,0,1,4.253,5.642A5.113,5.113,0,0,1,85.74,16.317Z" transform="translate(-51.999)"/>
  </g>
</svg>
