<svg xmlns="http://www.w3.org/2000/svg" viewBox="0 0 48.945 48.948">
  <defs>
    <style>
      .cls-1 {
        fill: #272726;
      }

      .cls-2 {
        fill: none;
        stroke: #272726;
        stroke-linecap: round;
        stroke-width: 3px;
      }
    </style>
  </defs>
  <g id="Group_6" data-name="Group 6" transform="translate(0)">
    <g id="Group_5" data-name="Group 5" transform="translate(0 0)">
      <g id="clock" transform="translate(0 0)">
        <g id="Group_4" data-name="Group 4" transform="translate(0 0)">
          <path id="Path_6" data-name="Path 6" class="cls-1" d="M46.992,15.11A23.986,23.986,0,0,0,33.96,2.123,24.043,24.043,0,0,0,24.433.168a23.794,23.794,0,0,0-9.5,1.955A24.062,24.062,0,0,0,1.927,15.11a24.478,24.478,0,0,0,0,19.039A24.114,24.114,0,0,0,14.933,47.162a23.8,23.8,0,0,0,9.5,1.954,24.051,24.051,0,0,0,9.527-1.954A24.039,24.039,0,0,0,46.992,34.148a24.169,24.169,0,0,0,0-19.039ZM43.085,35.434a21.478,21.478,0,0,1-7.868,7.846,21.068,21.068,0,0,1-10.784,2.892,20.713,20.713,0,0,1-8.35-1.714,21.88,21.88,0,0,1-6.851-4.579A21.764,21.764,0,0,1,4.657,33a21.093,21.093,0,0,1-1.686-8.381A21.06,21.06,0,0,1,5.835,13.851a21.488,21.488,0,0,1,7.841-7.846A20.905,20.905,0,0,1,24.433,3.113,21.068,21.068,0,0,1,35.217,6.006a21.542,21.542,0,0,1,7.868,7.846,20.938,20.938,0,0,1,2.89,10.764A21.14,21.14,0,0,1,43.085,35.434Z" transform="translate(0 -0.168)"/>
        </g>
      </g>
      <path id="Path_11" data-name="Path 11" class="cls-2" d="M521,3629.534l14.1,4.512" transform="translate(-510.628 -3608.851)"/>
      <path id="Path_12" data-name="Path 12" class="cls-2" d="M462.768,3877.124v-10.36" transform="translate(-438.295 -3841.569)"/>
    </g>
  </g>
</svg>
