<svg xmlns="http://www.w3.org/2000/svg" viewBox="0 0 48.965 48.929">
  <defs>
    <style>
      .cls-1 {
        fill: #272726;
      }

      .cls-2 {
        fill: #fff;
        stroke: #272726;
        stroke-linecap: round;
        stroke-width: 3px;
      }
    </style>
  </defs>
  <g id="Group_8" data-name="Group 8" transform="translate(0 0)">
    <g id="clock" transform="translate(0)">
      <g id="Group_4" data-name="Group 4" transform="translate(0 0)">
        <path id="Path_6" data-name="Path 6" class="cls-1" d="M47.011,15.1A23.987,23.987,0,0,0,33.973,2.122,24.069,24.069,0,0,0,24.442.168a23.82,23.82,0,0,0-9.5,1.954A24.063,24.063,0,0,0,1.928,15.1a24.451,24.451,0,0,0,0,19.031A24.114,24.114,0,0,0,14.939,47.144a23.821,23.821,0,0,0,9.5,1.953,24.077,24.077,0,0,0,9.531-1.953A24.039,24.039,0,0,0,47.011,34.135a24.142,24.142,0,0,0,0-19.031ZM43.1,35.42a21.478,21.478,0,0,1-7.871,7.842,21.089,21.089,0,0,1-10.789,2.891A20.735,20.735,0,0,1,16.09,44.44a21.89,21.89,0,0,1-6.854-4.577,21.754,21.754,0,0,1-4.578-6.879,21.07,21.07,0,0,1-1.687-8.378,21.04,21.04,0,0,1,2.865-10.76A21.488,21.488,0,0,1,13.681,6,20.926,20.926,0,0,1,24.442,3.112,21.089,21.089,0,0,1,35.231,6,21.542,21.542,0,0,1,43.1,13.846a20.918,20.918,0,0,1,2.891,10.76A21.119,21.119,0,0,1,43.1,35.42Z" transform="translate(0 -0.168)"/>
      </g>
    </g>
    <path id="Path_9" data-name="Path 9" class="cls-2" d="M531.309,3641.672,521,3629.535" transform="translate(-496.517 -3604.349)"/>
    <path id="Path_10" data-name="Path 10" class="cls-2" d="M462.768,3739.382v10.189" transform="translate(-438.285 -3724.387)"/>
  </g>
</svg>
