<svg xmlns="http://www.w3.org/2000/svg" viewBox="0 0 49.087 49.06">
  <defs>
    <style>
      .cls-1 {
        fill: #272726;
      }

      .cls-2 {
        fill: none;
        stroke: #272726;
        stroke-linecap: round;
        stroke-width: 3px;
      }
    </style>
  </defs>
  <g id="Group_9" data-name="Group 9" transform="translate(0)">
    <g id="Group_7" data-name="Group 7" transform="translate(0 0)">
      <g id="clock" transform="translate(0 0)">
        <g id="Group_4" data-name="Group 4" transform="translate(0 0)">
          <path id="Path_6" data-name="Path 6" class="cls-1" d="M47.128,15.144A24.048,24.048,0,0,0,34.058,2.127,24.125,24.125,0,0,0,24.5.168a23.876,23.876,0,0,0-9.527,1.959A24.125,24.125,0,0,0,1.932,15.144a24.52,24.52,0,0,0,0,19.082A24.177,24.177,0,0,0,14.976,47.269,23.877,23.877,0,0,0,24.5,49.228a24.133,24.133,0,0,0,9.554-1.959,24.1,24.1,0,0,0,13.07-13.043,24.21,24.21,0,0,0,0-19.082ZM43.21,35.514a21.533,21.533,0,0,1-7.89,7.863,21.139,21.139,0,0,1-10.816,2.9,20.784,20.784,0,0,1-8.374-1.718,21.944,21.944,0,0,1-6.871-4.589,21.812,21.812,0,0,1-4.589-6.9,21.13,21.13,0,0,1-1.691-8.4A21.1,21.1,0,0,1,5.852,13.882a21.543,21.543,0,0,1,7.863-7.863A20.976,20.976,0,0,1,24.5,3.12a21.138,21.138,0,0,1,10.816,2.9,21.6,21.6,0,0,1,7.89,7.863,20.976,20.976,0,0,1,2.9,10.789A21.178,21.178,0,0,1,43.21,35.514Z" transform="translate(0 -0.168)"/>
        </g>
      </g>
      <path id="Path_7" data-name="Path 7" class="cls-2" d="M528.529,3633.3l-4.118,16.671" transform="translate(-498.254 -3623.717)"/>
      <path id="Path_8" data-name="Path 8" class="cls-2" d="M399.384,3861.841H413.14" transform="translate(-386.983 -3835.588)"/>
    </g>
  </g>
</svg>
