<svg id="cocktail" xmlns="http://www.w3.org/2000/svg" viewBox="0 0 48.402 52.833">
  <g id="Group_13" data-name="Group 13" transform="translate(0)">
    <path id="Path_13" data-name="Path 13" d="M92.162,5.283c-4.148.006-7.645,2.645-8.168,6.164H81.408L84.7,1.761h3.346V0H83.924a1.021,1.021,0,0,0-.989.635L79.264,11.447H53.029a.964.964,0,0,0-1.03.88.8.8,0,0,0,.223.547L71.566,33.767v17.3H63.327v1.761H81.864V51.072H73.626v-17.3L87.911,18.338a9.1,9.1,0,0,0,4.251,1.034c4.55,0,8.239-3.154,8.239-7.044S96.712,5.283,92.162,5.283Zm-37,7.925H78.665l-2.093,6.164H60.865ZM72.6,32.042,62.5,21.133h13.48l-2.309,6.8,1.977.491,2.476-7.29H82.7Zm11.731-12.67H78.717l2.094-6.164h9.223Zm7.836-1.761a6.876,6.876,0,0,1-2.974-.652l3.782-4.084a.8.8,0,0,0-.168-1.237,1.144,1.144,0,0,0-.64-.19H86.069c.569-2.877,3.758-4.815,7.122-4.329s5.631,3.213,5.063,6.09C97.751,15.75,95.177,17.611,92.162,17.611Z" transform="translate(-51.999)"/>
  </g>
</svg>
